<svg id="Grupo_192" data-name="Grupo 192" xmlns="http://www.w3.org/2000/svg" width="284.717" height="48.109" viewBox="0 0 284.717 48.109">
  <g id="Capa_1-2" data-name="Capa 1-2">
    <path id="Trazado_45" data-name="Trazado 45" d="M699.949,72.226a11.156,11.156,0,0,1-4.434,1.042,5.106,5.106,0,0,1-5.312-5.212,5.514,5.514,0,0,1,5.776-5.594,14.059,14.059,0,0,1,3.292.561.578.578,0,0,0,.38-.114h.239v2.68h-.337a3.157,3.157,0,0,0-3.392-2.714c-2.912,0-4.4,2.417-4.4,5.08,0,3.392,2.391,4.9,4.284,4.9a5.582,5.582,0,0,0,2.527-.629V70.141c0-.956-.332-1.257-1.324-1.257h-.6v-.3h4.468v.3c-.827.048-1.16.33-1.16,1.043Z" transform="translate(-690.202 -45.334)" fill="#e0e5f1"/>
    <path id="Trazado_46" data-name="Trazado 46" d="M716.749,73.268c-3.242,0-5.977-2.084-5.977-5.18,0-3.291,2.532-5.625,6.055-5.625,3.127,0,5.809,2.135,5.809,5.113A5.693,5.693,0,0,1,716.749,73.268Zm-.335-10.392c-2.911,0-4.064,2.714-4.064,4.7,0,3.094,2.1,5.279,4.767,5.279s3.988-2.391,3.988-4.734C721.085,65.045,719.132,62.876,716.413,62.876Z" transform="translate(-699.918 -45.334)" fill="#e0e5f1"/>
    <path id="Trazado_47" data-name="Trazado 47" d="M734.425,64.546c0-.957-.115-1.435-1.274-1.435h-.579V62.8c.464-.017,1.6-.084,2.085-.1.911-.034,2.168-.051,2.482-.051a6.455,6.455,0,0,1,3.328.646,2.1,2.1,0,0,1,1.008,1.838,2.171,2.171,0,0,1-1.886,2.018v.026a2.976,2.976,0,0,1,2.465,2.763c0,1.291-.909,3.144-3.586,3.144h-6.044V72.77h.38c1.355,0,1.62-.316,1.62-1.358Zm1.375,2.546h1.8c1.59,0,2.39-.626,2.39-1.913,0-1.157-.7-2.216-2.73-2.216-.363,0-1.042.034-1.456.051Zm0,3.839c0,1.257.494,1.7,1.886,1.7A2.474,2.474,0,0,0,740.5,69.99a2.642,2.642,0,0,0-2.914-2.574H735.8Z" transform="translate(-710.146 -45.421)" fill="#e0e5f1"/>
    <path id="Trazado_48" data-name="Trazado 48" d="M755.261,73.226H751.24v-.313c1.028-.05,1.243-.316,1.243-1.434V64.443c0-.894-.316-1.143-1.243-1.2v-.313h4.021v.313c-1.042,0-1.406.239-1.406,1.341v7.026c0,.975.266,1.307,1.406,1.307Z" transform="translate(-719.033 -45.556)" fill="#e0e5f1"/>
    <path id="Trazado_49" data-name="Trazado 49" d="M767.3,69.5h-.316c-.131-1.176-.447-1.308-1.126-1.308h-2.794v3.524c0,.762.28.911.892.911H766.5c1.159,0,1.506-.447,1.912-1.869h.3l-.265,2.465h-8.779v-.313h.461c1.324,0,1.557-.366,1.557-1.358V64.571c0-.928-.215-1.324-1.324-1.324H760v-.313h7.944l.131,2.3h-.3c-.215-1.408-.629-1.7-1.224-1.7h-3.49v4.064h2.962c.6,0,.877-.282.956-1.241h.316Z" transform="translate(-723.016 -45.556)" fill="#e0e5f1"/>
    <path id="Trazado_50" data-name="Trazado 50" d="M779.269,71.534c0,.995.4,1.243,1.324,1.243h.38v.313h-4.688v-.313h.282c.975,0,1.322-.265,1.322-1.375V64.436c0-1.025-.28-1.324-1.241-1.324h-.363V62.8c.4,0,1.406-.067,2.085-.1s1.009-.051,2.085-.051c3.063,0,4.434,1.26,4.434,2.948a2.823,2.823,0,0,1-2.2,2.68A19.961,19.961,0,0,1,784.577,70l1.307,1.308a4.992,4.992,0,0,0,3.258,1.674v.3c-2.895.134-3.641-.494-5.113-1.967l-1.092-1.093a11.99,11.99,0,0,0-1.7-1.473c-.416.017-.679.034-1.126.034-.364,0-.579-.017-.844-.034Zm0-3.108a7.16,7.16,0,0,0,1.026.034c1.836,0,3.046-.777,3.046-2.764,0-1.54-.7-2.73-3.244-2.73a6.772,6.772,0,0,0-.827.033Z" transform="translate(-730.864 -45.421)" fill="#e0e5f1"/>
    <path id="Trazado_51" data-name="Trazado 51" d="M808.7,73.66l-8.573-8.97v7.1c0,1.2.265,1.434,1.673,1.434v.316h-3.841v-.316h.066c1.026,0,1.358-.347,1.358-1.109V63.987A2.437,2.437,0,0,0,798,63.567v-.316h2.6l7.794,8.128V64.791c0-1.009-.3-1.2-1.621-1.224v-.316h3.87v.316c-1.241,0-1.5.215-1.5.861V73.66Z" transform="translate(-741.1 -45.706)" fill="#e0e5f1"/>
    <path id="Trazado_52" data-name="Trazado 52" d="M827.221,73.268c-3.244,0-5.977-2.084-5.977-5.18,0-3.291,2.532-5.625,6.058-5.625,3.127,0,5.807,2.135,5.807,5.113A5.694,5.694,0,0,1,827.221,73.268Zm-.347-10.392c-2.914,0-4.064,2.714-4.064,4.7,0,3.094,2.1,5.279,4.767,5.279s3.988-2.391,3.988-4.734C831.557,65.045,829.6,62.876,826.874,62.876Z" transform="translate(-752.1 -45.334)" fill="#e0e5f1"/>
    <path id="Trazado_53" data-name="Trazado 53" d="M852.911,64.453c0-1.076-.28-1.341-1.257-1.341h-.33V62.8c.612-.034,1.423-.067,2.333-.1s1.912-.051,2.78-.051c4.368,0,6.3,2.219,6.3,4.949,0,2.5-1.936,5.5-6.123,5.5h-5.295v-.313h.282c.892,0,1.305-.239,1.305-1.209Zm1.374,7.411c0,.679.051.911,1.358.911,2.216,0,3.144-.316,4.169-1.341a5.1,5.1,0,0,0,1.372-3.574,4.982,4.982,0,0,0-1.322-3.557c-.763-.763-1.937-1.341-4.253-1.341a13.218,13.218,0,0,0-1.324.067Z" transform="translate(-766.308 -45.421)" fill="#e0e5f1"/>
    <path id="Trazado_54" data-name="Trazado 54" d="M879.907,69.5h-.315c-.131-1.176-.447-1.308-1.126-1.308h-2.794v3.524c0,.762.28.911.891.911h2.549c1.16,0,1.506-.447,1.913-1.869h.3l-.265,2.465h-8.778v-.313h.462c1.324,0,1.556-.366,1.556-1.358V64.571c0-.928-.215-1.324-1.324-1.324h-.363v-.313h7.944l.131,2.3h-.3c-.215-1.408-.628-1.7-1.224-1.7h-3.49v4.064h2.962c.6,0,.878-.282.956-1.241h.316Z" transform="translate(-776.206 -45.556)" fill="#e0e5f1"/>
    <path id="Trazado_55" data-name="Trazado 55" d="M1041.3,68.923h-.313c-.134-1.176-.448-1.308-1.126-1.308h-2.8v3.524c0,.763.282.911.894.911h2.549c1.157,0,1.506-.447,1.913-1.869h.3l-.263,2.465h-8.783v-.313h.459c1.324,0,1.557-.366,1.557-1.358V63.991c0-.928-.215-1.324-1.324-1.324h-.366v-.313h7.944l.131,2.3h-.292c-.215-1.408-.628-1.7-1.226-1.7h-3.49v4.064h2.962c.6,0,.878-.282.956-1.241h.32Z" transform="translate(-852.438 -45.282)" fill="#e0e5f1"/>
    <path id="Trazado_56" data-name="Trazado 56" d="M1059.286,72.646h-7.4v-.313h.547c.76,0,1.043-.239,1.043-1.092V63.908c0-.877-.265-1.241-1.308-1.241h-.239v-.313h4.882v.313h-.612c-1.076,0-1.358.117-1.358,1.143v7.629c0,.447.181.612.662.612h2.433c.976,0,1.274-.38,2.316-1.819h.3Z" transform="translate(-861.046 -45.282)" fill="#e0e5f1"/>
    <path id="Trazado_57" data-name="Trazado 57" d="M1077.1,69.916a2.87,2.87,0,0,0,2.8,2.333,2.078,2.078,0,0,0,2.283-1.953c0-2.391-5.312-3.108-5.312-6.005,0-1.375,1.257-2.391,2.945-2.391a11.074,11.074,0,0,1,2.249.414.319.319,0,0,0,.3-.165h.265l.28,2.1h-.28a2.921,2.921,0,0,0-2.666-1.97,1.641,1.641,0,0,0-1.853,1.557c0,2.354,5.3,2.986,5.3,6.029,0,1.624-1.435,2.831-3.376,2.831a13.487,13.487,0,0,1-2.3-.447.4.4,0,0,0-.333.182h-.28l-.349-2.515Z" transform="translate(-872.804 -45.069)" fill="#e0e5f1"/>
    <path id="Trazado_58" data-name="Trazado 58" d="M1093.468,67.857l-.956,2.6a4.639,4.639,0,0,0-.333,1.043c0,.447.43.614,1.341.614h.266v.313h-3.825V72.11c1.076-.017,1.258-.2,1.786-1.64l3.012-8.224-.148-.363h1.434l3.459,9.185a1.3,1.3,0,0,0,1.506,1.042v.313h-4.542V72.11h.43c.944,0,1.291-.1,1.291-.564a1.847,1.847,0,0,0-.179-.667l-1.109-3.01Zm1.688-4.585-1.4,3.856h2.868Z" transform="translate(-879.029 -45.06)" fill="#e0e5f1"/>
    <path id="Trazado_59" data-name="Trazado 59" d="M1118.162,72.646h-7.4v-.313h.545c.763,0,1.045-.239,1.045-1.092V63.908c0-.877-.266-1.241-1.308-1.241h-.239v-.313h4.882v.313h-.612c-1.076,0-1.358.117-1.358,1.143v7.629c0,.447.182.612.662.612h2.431c.978,0,1.274-.38,2.317-1.819h.3Z" transform="translate(-888.856 -45.282)" fill="#e0e5f1"/>
    <path id="Trazado_60" data-name="Trazado 60" d="M1127.239,72.911l-3.586-8.953c-.416-1.042-.614-1.291-1.623-1.291v-.313h4.542v.313c-1.523.034-1.886.38-1.573,1.143l2.978,7.411,2.633-6.832a3.21,3.21,0,0,0,.28-1.026c0-.5-.414-.7-1.537-.7v-.313h3.839v.313c-.861,0-1.308.4-1.7,1.435l-3.409,8.821Z" transform="translate(-894.177 -45.282)" fill="#e0e5f1"/>
    <path id="Trazado_61" data-name="Trazado 61" d="M1143.034,67.857l-.956,2.6a4.757,4.757,0,0,0-.33,1.043c0,.447.431.614,1.341.614h.263v.313h-3.825V72.11c1.076-.017,1.26-.2,1.788-1.64l3.012-8.224-.15-.363h1.434l3.457,9.185a1.3,1.3,0,0,0,1.506,1.042v.313h-4.543V72.11h.431c.942,0,1.289-.1,1.289-.564a1.848,1.848,0,0,0-.182-.679l-1.107-3.01Zm1.688-4.585-1.408,3.856h2.869Z" transform="translate(-902.442 -45.06)" fill="#e0e5f1"/>
    <path id="Trazado_62" data-name="Trazado 62" d="M1161.752,63.873c0-1.076-.281-1.341-1.257-1.341h-.33v-.313c.612-.034,1.434-.067,2.333-.1s1.912-.051,2.778-.051c4.37,0,6.306,2.219,6.306,4.949,0,2.5-1.936,5.5-6.123,5.5h-5.295V72.2h.28c.894,0,1.307-.239,1.307-1.209Zm1.375,7.411c0,.679.048.911,1.356.911,2.219,0,3.144-.316,4.172-1.341a5.1,5.1,0,0,0,1.372-3.586,4.974,4.974,0,0,0-1.324-3.557c-.76-.762-1.936-1.341-4.253-1.341a13.2,13.2,0,0,0-1.322.067Z" transform="translate(-912.19 -45.147)" fill="#e0e5f1"/>
    <path id="Trazado_63" data-name="Trazado 63" d="M1189.162,72.689c-3.244,0-5.977-2.085-5.977-5.181,0-3.291,2.532-5.625,6.056-5.625,3.129,0,5.809,2.135,5.809,5.113A5.692,5.692,0,0,1,1189.162,72.689Zm-.349-10.393c-2.912,0-4.064,2.714-4.064,4.7,0,3.094,2.1,5.279,4.764,5.279s3.988-2.391,3.988-4.734C1193.5,64.465,1191.545,62.3,1188.813,62.3Z" transform="translate(-923.064 -45.06)" fill="#e0e5f1"/>
    <path id="Trazado_64" data-name="Trazado 64" d="M1208.41,70.966c0,.995.4,1.243,1.324,1.243h.38v.313h-4.683v-.313h.282c.975,0,1.322-.265,1.322-1.375V63.856c0-1.025-.28-1.324-1.24-1.324h-.364v-.313c.4,0,1.406-.067,2.085-.1s1.009-.051,2.085-.051c3.063,0,4.434,1.258,4.434,2.945a2.824,2.824,0,0,1-2.2,2.683,19.647,19.647,0,0,1,1.886,1.721l1.307,1.308a4.993,4.993,0,0,0,3.259,1.674v.3c-2.9.134-3.639-.494-5.114-1.967l-1.09-1.093a12.082,12.082,0,0,0-1.7-1.473c-.414.017-.679.031-1.126.031-.364,0-.578-.014-.844-.031Zm0-3.108a7.078,7.078,0,0,0,1.025.033c1.838,0,3.046-.777,3.046-2.763,0-1.54-.7-2.73-3.244-2.73a6.759,6.759,0,0,0-.827.033Z" transform="translate(-933.572 -45.147)" fill="#e0e5f1"/>
    <path id="Trazado_65" data-name="Trazado 65" d="M961.507,30l.662,1.341,1.48.213L962.578,32.6l.253,1.473-1.324-.7-1.322.7.253-1.473-1.071-1.045,1.48-.213Z" transform="translate(-817.343 -30)" fill="#e0e5f1"/>
    <path id="Trazado_66" data-name="Trazado 66" d="M979.941,34.7l.662,1.341,1.48.215L981.012,37.3l.253,1.473-1.324-.693-1.324.693.253-1.473L977.8,36.259l1.48-.215Z" transform="translate(-826.049 -32.221)" fill="#e0e5f1"/>
    <path id="Trazado_67" data-name="Trazado 67" d="M994.077,46.147l.662,1.339,1.48.215-1.071,1.042.253,1.475-1.324-.7-1.324.7.253-1.475L991.935,47.7l1.48-.215Z" transform="translate(-832.726 -37.627)" fill="#e0e5f1"/>
    <path id="Trazado_68" data-name="Trazado 68" d="M1002.15,62.526l.662,1.339,1.48.215-1.071,1.045.253,1.473-1.324-.7-1.324.7.253-1.473-1.071-1.045,1.48-.215Z" transform="translate(-836.54 -45.364)" fill="#e0e5f1"/>
    <path id="Trazado_69" data-name="Trazado 69" d="M1002.461,81.537l.662,1.339,1.48.215-1.071,1.042.253,1.475-1.324-.7-1.322.7.253-1.475-1.071-1.042,1.48-.215Z" transform="translate(-836.687 -54.344)" fill="#e0e5f1"/>
    <path id="Trazado_70" data-name="Trazado 70" d="M994.095,97.993l.66,1.339,1.48.215-1.071,1.045.253,1.473-1.322-.7-1.324.7.253-1.473-1.071-1.045,1.48-.215Z" transform="translate(-832.735 -62.116)" fill="#e0e5f1"/>
    <path id="Trazado_71" data-name="Trazado 71" d="M980.031,109.442l.66,1.339,1.48.215L981.1,112.04l.253,1.473-1.322-.7-1.324.7.253-1.473L977.89,111l1.48-.215Z" transform="translate(-826.092 -67.524)" fill="#e0e5f1"/>
    <path id="Trazado_72" data-name="Trazado 72" d="M961.5,113.46l.66,1.339,1.482.215-1.071,1.045.251,1.473-1.322-.7-1.324.7.253-1.473-1.071-1.045,1.48-.215Z" transform="translate(-817.339 -69.423)" fill="#e0e5f1"/>
    <path id="Trazado_73" data-name="Trazado 73" d="M943.38,109.451l.662,1.341,1.48.215-1.071,1.042.253,1.473-1.324-.7-1.322.7.253-1.473-1.071-1.042,1.48-.215Z" transform="translate(-808.781 -67.529)" fill="#e0e5f1"/>
    <path id="Trazado_74" data-name="Trazado 74" d="M929.31,98.011l.662,1.341,1.48.215-1.071,1.042.253,1.473-1.324-.7-1.324.7.253-1.473-1.071-1.042,1.48-.215Z" transform="translate(-802.133 -62.125)" fill="#e0e5f1"/>
    <path id="Trazado_75" data-name="Trazado 75" d="M920.933,81.659,921.595,83l1.48.215L922,84.255l.251,1.473-1.322-.693-1.324.693.254-1.473-1.071-1.042,1.48-.215Z" transform="translate(-798.176 -54.401)" fill="#e0e5f1"/>
    <path id="Trazado_76" data-name="Trazado 76" d="M920.933,62.526l.662,1.339,1.48.215L922,65.125l.251,1.473-1.322-.7-1.324.7.254-1.473-1.071-1.045,1.48-.215Z" transform="translate(-798.176 -45.364)" fill="#e0e5f1"/>
    <path id="Trazado_77" data-name="Trazado 77" d="M928.884,46.166l.662,1.341,1.48.215-1.071,1.042.253,1.473-1.324-.7-1.324.7.253-1.473-1.071-1.042,1.48-.215Z" transform="translate(-801.932 -37.636)" fill="#e0e5f1"/>
    <path id="Trazado_78" data-name="Trazado 78" d="M943.357,34.716l.662,1.341,1.48.213-1.071,1.045.253,1.473-1.325-.7-1.322.7.251-1.473-1.069-1.045,1.48-.213Z" transform="translate(-808.77 -32.228)" fill="#e0e5f1"/>
    <path id="Trazado_79" data-name="Trazado 79" d="M984.733,82.18h-.022a.184.184,0,1,0,0,.368h.045a.184.184,0,0,0,0-.368Z" transform="translate(-829.227 -54.647)" fill="#e0e5f1"/>
    <path id="Trazado_80" data-name="Trazado 80" d="M964.778,63.73a1.236,1.236,0,0,0-.447.167.711.711,0,0,1-.259.108.688.688,0,0,0,.067-.354c-.033-.337-.033-.887-.033-.887s-.11.335-.27.416-.478.191-.529.3-.28.11-.366.447a1.268,1.268,0,0,1-.136.414.83.83,0,0,1-.072.115,7.589,7.589,0,0,0,.184-1.471V62.75a2.538,2.538,0,0,0,.191-.184c.072-.117.928-.411,1.047-.643s.184-.382.239-.478a1.666,1.666,0,0,0,.136-.622,4.963,4.963,0,0,0-.1-.856,1.163,1.163,0,0,0-.351.273.413.413,0,0,1-.1.1.646.646,0,0,0-.041-.239c-.12-.294-.3-.686-.3-.686a4.509,4.509,0,0,0-.239.4c-.143.287-.287.311-.311.423s-.194.192-.256.423c-.024.081-.036.141-.045.184a13.033,13.033,0,0,0-.239-1.348c.041-.129.086-.412.2-.5a.664.664,0,0,0,.191-.559,2.059,2.059,0,0,0-.081-.526c-.024-.136-.447-.717-.414-.887l-.289.657a3.457,3.457,0,0,0-.7-.538c-.1-.182-.211-.366-.322-.547,0-.055.019-.17.036-.292a1.33,1.33,0,0,0,.014-.574,4.579,4.579,0,0,1-.223-.414.835.835,0,0,0-.225-.416c-.136-.144-.335-.335-.335-.335s-.055.239-.1.447a.779.779,0,0,0-.143-.055c-.031-.014-.1-.05-.179-.093-.1-.129-.191-.254-.277-.364a.18.18,0,0,0,.081-.15.184.184,0,1,0-.184.184.2.2,0,0,0,.1-.031c.026.038.1.153.206.322l-.218-.124c-.071-.048-.11.5.055.8l-.079-.022a1.956,1.956,0,0,0-.639-.055c.081,0,.28.215.3.328a.956.956,0,0,0,.335.416,1.968,1.968,0,0,1,.416.311,1.3,1.3,0,0,0,.7.136.4.4,0,0,0,.239.06c.1.177.205.358.306.538a1.828,1.828,0,0,0-.065.478h0c-.136-.024-.607-.136-.607-.136a1.635,1.635,0,0,0,.239.7.181.181,0,0,0-.052.1.224.224,0,0,0,.041.168.573.573,0,0,0,.263.217l-2.283,1.607a31.308,31.308,0,0,0-.225-5.886c.277-.105.2-.239.2-.239l-.108-.27a.24.24,0,0,0,.088.022.173.173,0,0,0,.129-.055.2.2,0,0,0-.028-.28.593.593,0,0,0-.177-.124l.326-.048.186-.786h0l-.765.258-.017.33a.523.523,0,0,0-.138-.16.187.187,0,1,0-.3.215.182.182,0,0,0,.066.058.577.577,0,0,0,.282.148.076.076,0,0,0,0,.022l-3.825,4.219-2.53-4.239a6.987,6.987,0,0,0-.418-2.656,1.709,1.709,0,0,0,.045-.423.353.353,0,0,0,.239-.239h0a4.292,4.292,0,0,0-.292-.328.739.739,0,0,0,.136.017h.017a.2.2,0,0,0,.215-.187.2.2,0,0,0-.211-.184h0a.55.55,0,0,0-.215.024l.208-.253-.392-.718h0l-.389.718.208.255a.569.569,0,0,0-.211-.026.239.239,0,0,0-.163.064.17.17,0,0,0-.05.122.162.162,0,0,0,.053.122.216.216,0,0,0,.158.062h.131a2.914,2.914,0,0,0-.208.22.266.266,0,0,0-.055.064l-.012.017v.045a.375.375,0,0,0,.117.141,5.483,5.483,0,0,0-.6,3.742l-2.183,3.648-3.844-4.236a.58.58,0,0,0,.306-.15.242.242,0,0,0,.077-.158.165.165,0,0,0-.043-.125.169.169,0,0,0-.119-.055.239.239,0,0,0-.16.058.612.612,0,0,0-.141.165l-.019-.33-.768-.258h0l.187.786.327.048a.581.581,0,0,0-.174.122.237.237,0,0,0-.076.155.167.167,0,0,0,.165.182h0a.206.206,0,0,0,.089-.022l-.108.27s-.076.125.2.239a31.666,31.666,0,0,0-.223,5.886l-2.283-1.607a.59.59,0,0,0,.261-.215.223.223,0,0,0,.043-.153.166.166,0,0,0-.053-.108,1.655,1.655,0,0,0,.239-.7s-.478.112-.607.136h0a1.856,1.856,0,0,0-.064-.478c.1-.179.2-.361.306-.538a.4.4,0,0,0,.239-.06,1.291,1.291,0,0,0,.7-.136,2.033,2.033,0,0,1,.416-.311.958.958,0,0,0,.361-.428c.024-.112.222-.328.3-.328a1.969,1.969,0,0,0-.641.055l-.076.021c.165-.3.124-.851.052-.8l-.215.125c.108-.17.179-.285.205-.323a.193.193,0,0,0,.1.031.184.184,0,1,0-.184-.184.177.177,0,0,0,.084.15c-.089.11-.182.24-.278.364-.076.043-.148.079-.181.093a.635.635,0,0,0-.141.055c-.051-.2-.106-.447-.106-.447s-.2.191-.335.335a.805.805,0,0,0-.225.416,4.056,4.056,0,0,1-.225.414,1.33,1.33,0,0,0,.034.584c.016.122.028.239.033.292-.11.182-.217.366-.323.547a3.532,3.532,0,0,0-.7.538c-.079-.186-.286-.657-.286-.657.031.167-.392.75-.416.886a2.192,2.192,0,0,0-.079.526.664.664,0,0,0,.191.559c.115.093.163.376.2.5-.093.407-.174.856-.239,1.349a1.555,1.555,0,0,0-.043-.184c-.065-.239-.239-.3-.256-.423s-.167-.136-.311-.423c-.089-.151-.239-.4-.239-.4s-.184.392-.3.686a.7.7,0,0,0-.041.239.431.431,0,0,1-.093-.1,1.17,1.17,0,0,0-.351-.272,4.958,4.958,0,0,0-.1.856,1.613,1.613,0,0,0,.134.622c.057.1.12.256.239.478s.978.526,1.047.643a2.371,2.371,0,0,0,.194.184V63a7.524,7.524,0,0,0,.182,1.47,1.046,1.046,0,0,1-.069-.115,1.164,1.164,0,0,1-.137-.414c-.088-.337-.311-.337-.368-.447s-.359-.225-.526-.3-.273-.416-.273-.416,0,.55-.031.887a.67.67,0,0,0,.067.354.688.688,0,0,1-.26-.108,1.237,1.237,0,0,0-.447-.167,7.274,7.274,0,0,0,.167.885,1.67,1.67,0,0,0,.337.583c.079.089.191.225.383.416a4.607,4.607,0,0,0,1.255.423.736.736,0,0,1,.389.294c.02.069.038.133.048.177.062.239.146.538.239.856a1.047,1.047,0,0,0-.734-.3c-.194-.034-.944-.225-.944-.225a1.927,1.927,0,0,1,.4.832,2.5,2.5,0,0,0-.873,0,2.8,2.8,0,0,1,.743.837,3,3,0,0,0,.478.829c.089.058.335.361.5.529s.829.079,1.054.079a2.114,2.114,0,0,1,.507.163,5.239,5.239,0,0,0,.7.734,1.9,1.9,0,0,1-.612-.4c-.11-.146.014.492.139.7a.976.976,0,0,1-.478-.141c-.184-.144-.024.5.175.686a5.9,5.9,0,0,1,.459.479,2.454,2.454,0,0,1-1.019.1c-.2-.112.223.28.479.375.368.137.32.376.717.5a3.192,3.192,0,0,0,1.119.256,3.6,3.6,0,0,1,.607-.151,8.6,8.6,0,0,1,1.121-.411c.45.275.906.531,1.353.746l.072.034a1.451,1.451,0,0,0-.158.022,2.994,2.994,0,0,1-1.023.112c-.17-.079.175.368.38.535a3.327,3.327,0,0,1-.937.072c-.225-.047.447.6.718.67h.031a1.792,1.792,0,0,1-.509.115c-.239-.014.734.617,1,.576.846-.119,1.645.167,2.037,0,.349-.136.557-.239.734-.287s.273-.225.383-.3a1.364,1.364,0,0,1,.437-.344l.015.026a7.852,7.852,0,0,0,.892,0,1.338,1.338,0,0,0-.364.217c-.437.139-.789.256-.9.311a8.492,8.492,0,0,0-1.415,1.167s.717-.055.832-.055.358-.5.478-.584c.155-.088.315-.167.478-.239a1.148,1.148,0,0,0,.225,1.435c-.191-.225.024-.615.024-.615l.39.239a1.127,1.127,0,0,1,.521-1.559l.079-.031a.393.393,0,0,0,.311.17.387.387,0,0,0,.3-.158l.151.058a1.1,1.1,0,0,1,.461,1.52l.39-.239s.217.39.024.615a1.153,1.153,0,0,0,.239-1.411,4.508,4.508,0,0,1,.423.215c.112.086.359.584.478.584s.832.055.832.055a8.5,8.5,0,0,0-1.415-1.167c-.106-.053-.428-.16-.835-.289a1.4,1.4,0,0,0-.387-.239,7.851,7.851,0,0,0,.892,0h0a1.4,1.4,0,0,1,.4.325c.112.079.208.239.385.3s.382.151.734.287c.392.16,1.2-.127,2.037,0,.263.041,1.231-.59,1-.576a1.819,1.819,0,0,1-.51-.114h.031c.263-.072.935-.718.718-.67a3.327,3.327,0,0,1-.937-.072c.205-.167.53-.614.377-.536a3.034,3.034,0,0,1-1.023-.112,1.434,1.434,0,0,0-.158-.022l.072-.033c.447-.215.906-.478,1.355-.746a8.223,8.223,0,0,1,1.121.412,3.7,3.7,0,0,1,.607.15,3.121,3.121,0,0,0,1.119-.256c.423-.136.351-.366.717-.5.256-.1.679-.478.478-.375a2.453,2.453,0,0,1-1.018-.106c.067-.026.029-.086.459-.478.2-.182.359-.829.175-.686a.987.987,0,0,1-.478.141c.124-.208.239-.846.139-.7a1.907,1.907,0,0,1-.612.4,5.267,5.267,0,0,0,.717-.734,2.06,2.06,0,0,1,.507-.163c.224,0,.886.088,1.054-.079a7.273,7.273,0,0,1,.5-.528,3.017,3.017,0,0,0,.478-.829,2.756,2.756,0,0,1,.743-.837,2.5,2.5,0,0,0-.873,0,1.9,1.9,0,0,1,.4-.832s-.751.192-.942.225a1.046,1.046,0,0,0-.734.3c.1-.318.177-.612.239-.856a.817.817,0,0,1,.05-.177.719.719,0,0,1,.389-.294,4.459,4.459,0,0,0,1.253-.423c.2-.2.3-.328.385-.416a1.627,1.627,0,0,0,.335-.584A7.149,7.149,0,0,0,964.778,63.73Zm-2-.536a7.586,7.586,0,0,1-.173,1.131,1.194,1.194,0,0,0-.124-.452c-.081-.168-.192-.168-.239-.335s-.239-.222-.359-.358a2.4,2.4,0,0,0-.337-.3,3.056,3.056,0,0,0-.055,1.054.717.717,0,0,1,.041.165l-.153-.055c-.144.327.024.662.079.956a2.365,2.365,0,0,0,.191.392c.057.11.034.215.089.3s.175.084.3.2a1.687,1.687,0,0,0,.067.435c-.1.356-.222.717-.349,1.083a.847.847,0,0,0-.134-.382,1.361,1.361,0,0,1-.239-.45c-.112-.3-.337-.3-.368-.6a5.488,5.488,0,0,0-.1.662,1.7,1.7,0,0,0,.041.586.96.96,0,0,1-.048.37,1.11,1.11,0,0,0-.11-.478.535.535,0,0,1-.057-.335,3.02,3.02,0,0,1-.426.565l-.1-.175c1.458-2.546,1.119-6.906,1.064-7.5.239-.05.194-.17.194-.17l-.045-.287a.23.23,0,0,0,.074.038.2.2,0,0,0,.05,0,.168.168,0,0,0,.1-.031.171.171,0,0,0,.074-.131h0a.861.861,0,0,0,.3.239c.2.055.366.144.389.222h0a12.871,12.871,0,0,1,.282,1.588h0c-.222-.239-.28-.717-.775-.976a1.455,1.455,0,0,1,0,.337,1.971,1.971,0,0,0-.045.435,1.419,1.419,0,0,1-.38-.373,2.329,2.329,0,0,0,.112,1.054c.192.368.2.55.414.629a1.067,1.067,0,0,1,.337.2.712.712,0,0,0,.334.136.1.1,0,0,1,.074.043,1.318,1.318,0,0,0,.043.167c-.009.146-.009.284-.014.409Zm-19.364-3,1.482,1.052a5.03,5.03,0,0,0,.213,1.635l-1.229,2.051a9.611,9.611,0,0,1-.461-4.738ZM941.142,59a.4.4,0,0,1,.253-.192.455.455,0,0,1-.1.309.137.137,0,0,1-.079.058.079.079,0,0,1-.074,0,.093.093,0,0,1-.036-.079.147.147,0,0,1,.036-.105Zm4.848-3.419,1.176,1.3a5.241,5.241,0,0,0,.239,2.173l-1.068,1.788c-.258-.528-.787-2.06-.342-5.266Zm4.583-.837a4.715,4.715,0,0,1,1.573,0l.167.282a4.365,4.365,0,0,0-1.913,0Zm.134-.225.655-1.092.651,1.087a4.88,4.88,0,0,0-1.3,0Zm-.445.751a4.169,4.169,0,0,1,2.2,0l.182.3a3.91,3.91,0,0,0-2.565.012Zm-.356.6a3.689,3.689,0,0,1,2.919-.022l4.511,7.554h-1.657a1.89,1.89,0,0,1-.217-.153.605.605,0,0,0-.079-.057.476.476,0,0,0-.368-.072.721.721,0,0,0-.2.072,1.118,1.118,0,0,0-.172.112h-.022a.62.62,0,0,1-.081-.036,1.908,1.908,0,0,1-.406-.263.783.783,0,0,0-.132-.088.525.525,0,0,0-.239-.062.631.631,0,0,0-.177.028,1.017,1.017,0,0,0-.239.106,1.4,1.4,0,0,0-.139.1h-.019a1.516,1.516,0,0,0-.265-.136,1.356,1.356,0,0,1-.239-.122,2.494,2.494,0,0,1-.308-.22.947.947,0,0,0-.11-.079.651.651,0,0,0-.265-.081.568.568,0,0,0-.189,0,.944.944,0,0,0-.239.089,1.165,1.165,0,0,0-.119.077V60.015c.277-.017.478-.112.478-.239a2.192,2.192,0,0,0-.464-1.095.494.494,0,0,0-.55,0s-.342.2-.167.478c0,0,.038.084.186.024a.2.2,0,0,0,.125-.15V59.1c0,.1-.134.15-.141.153a2.532,2.532,0,0,0-.138.536c0,.117.215.213.492.239v2.651l-.024-.017a2.562,2.562,0,0,1-.328-.239.806.806,0,0,0-.12-.086.671.671,0,0,0-.265-.086.628.628,0,0,0-.222,0,1.007,1.007,0,0,0-.253.093,1.4,1.4,0,0,0-.239.155h-.039l-.1-.06a1.393,1.393,0,0,0-.15-.072,1.59,1.59,0,0,1-.2-.088,3.04,3.04,0,0,1-.517-.347l-.048-.039a.786.786,0,0,0-.426-.167h-.122a.971.971,0,0,0-.294.072,1.519,1.519,0,0,0-.3.17,2.562,2.562,0,0,0-.3.26,4.192,4.192,0,0,0-.342.378,4.446,4.446,0,0,0-.292.4.04.04,0,0,1-.014.019c-.065.081-.134.158-.206.239a1.06,1.06,0,0,1-.141.127h-.918Zm6.5,4.96-1.069-1.788a5.568,5.568,0,0,0,.239-2.171l1.174-1.3C957.185,58.772,956.649,60.3,956.41,60.823Zm4.932-2.027a.428.428,0,0,1,.258.2.147.147,0,0,1,.026.093.085.085,0,0,1-.036.066.077.077,0,0,1-.074,0,.142.142,0,0,1-.079-.057.455.455,0,0,1-.1-.3Zm-2.482,6.12-1.229-2.051a4.929,4.929,0,0,0,.213-1.621l1.477-1.04a9.608,9.608,0,0,1-.471,4.712Zm-15.838,2.472,1.15-1.927h13.968l-.072-.041a2.263,2.263,0,0,1-.239-.167c-.139-.108-.268-.223-.4-.342-.184-.172-.361-.351-.535-.536-.115-.12-.239-.239-.34-.364a2.124,2.124,0,0,0-.15-.158,2.317,2.317,0,0,0-.306-.239,1.163,1.163,0,0,0-.151-.081h1.473l2.314,3.866Zm2.312-3.866h.854a5.71,5.71,0,0,1-.517.4l-.05.031a2.7,2.7,0,0,0-.277.192c-.146.11-.285.239-.421.351a4.944,4.944,0,0,0-.4.373ZM951.347,63l.1.043a1.147,1.147,0,0,1,.11.05,2.132,2.132,0,0,1,.282.186,2.986,2.986,0,0,1,.406.385c.189.213.385.421.584.626.081.083.163.167.239.239.21.211.425.414.648.609l.043.036h-1.092a.036.036,0,0,1-.031,0l-.074-.057c-.153-.12-.3-.24-.442-.373s-.325-.3-.478-.457q-.516-.509-1-1.047l-.17-.186a3.884,3.884,0,0,0-.4-.371.045.045,0,0,1-.017,0h0a1.3,1.3,0,0,1,.225-.124.66.66,0,0,1,.139-.036.384.384,0,0,1,.239.043.52.52,0,0,1,.1.07,2.9,2.9,0,0,0,.26.191,2.106,2.106,0,0,0,.326.172Zm4.406.718.051.021a.772.772,0,0,1,.122.06,1.723,1.723,0,0,1,.284.217c.057.053.11.108.162.165.1.115.205.24.313.34s.194.2.292.3.239.239.364.347c0,0,.014,0,.016.019h-.612a.05.05,0,0,1-.041,0c-.115-.1-.225-.191-.335-.291s-.21-.2-.313-.3c-.239-.223-.445-.454-.66-.689-.045-.05-.088-.1-.136-.148a2.387,2.387,0,0,0-.344-.3l-.015-.012h0a.488.488,0,0,1,.168-.072.22.22,0,0,1,.169.028.316.316,0,0,1,.06.043,2.087,2.087,0,0,0,.442.28Zm-.825.081a2.291,2.291,0,0,1,.239.239c.158.179.32.351.478.521s.3.3.454.45l.187.172.016.015h-.87a.034.034,0,0,1-.029,0l-.17-.139c-.16-.137-.316-.28-.466-.426l-.263-.256c-.239-.239-.447-.461-.662-.7l-.144-.158a3.029,3.029,0,0,0-.239-.239h-.012a.708.708,0,0,1,.181-.105.42.42,0,0,1,.131-.031.253.253,0,0,1,.139.031.37.37,0,0,1,.079.055,2.228,2.228,0,0,0,.43.282,1.243,1.243,0,0,0,.129.06.609.609,0,0,1,.122.06,1.809,1.809,0,0,1,.256.177Zm-1.326,0c.122.138.239.272.373.406s.24.239.349.358c.2.2.4.395.614.581l.048.043h-.774a.037.037,0,0,1-.033,0c-.058-.045-.115-.089-.17-.136-.184-.153-.359-.313-.531-.478l-.275-.27c-.239-.24-.478-.495-.717-.751-.055-.06-.108-.12-.163-.177a2.853,2.853,0,0,0-.449-.387,1.951,1.951,0,0,0-.239-.146h-.014a.636.636,0,0,1,.239-.1.35.35,0,0,1,.124,0,.324.324,0,0,1,.141.043.5.5,0,0,1,.093.067,2.608,2.608,0,0,0,.545.347l.082.036a.958.958,0,0,1,.141.067,2.018,2.018,0,0,1,.289.205,2.806,2.806,0,0,1,.316.287Zm-3.423-.641a2.552,2.552,0,0,1,.215.239l.24.263c.143.153.286.306.435.456.261.268.531.531.808.784.107.1.215.194.325.284l.019.017h-7.65l.127-.131c.115-.112.239-.222.349-.33a5.482,5.482,0,0,1,.442-.376,3.113,3.113,0,0,1,.29-.2.733.733,0,0,0,.083-.055,5.918,5.918,0,0,0,.689-.557,3.9,3.9,0,0,0,.347-.37l.019-.026a4.1,4.1,0,0,1,.294-.411c.086-.105.177-.206.272-.3a2.174,2.174,0,0,1,.323-.263,1.183,1.183,0,0,1,.239-.131.8.8,0,0,1,.182-.045.473.473,0,0,1,.306.06.552.552,0,0,1,.117.079,2.6,2.6,0,0,0,.268.2,2.79,2.79,0,0,0,.334.2,2.017,2.017,0,0,0,.189.084l.122.057a2.548,2.548,0,0,1,.306.2A3.464,3.464,0,0,1,950.178,63.156Zm-1.726,4.731a3.651,3.651,0,0,0,1.233.6,4.63,4.63,0,0,1-3.865-.6Zm2.629,1.561s.182-.956.29-1.561h0c.105.6.289,1.561.289,1.561a1.092,1.092,0,0,1-.289.892,1.065,1.065,0,0,1-.294-.889Zm3.2-1.561h2.629a4.614,4.614,0,0,1-3.863.6,3.619,3.619,0,0,0,1.228-.593Zm6.694-9.429a.154.154,0,0,1-.026-.105.082.082,0,0,1,.029-.047l.024.016a.828.828,0,0,1,.239.239.234.234,0,0,1,0,.1.466.466,0,0,1-.268-.2Zm-2.068-4.606a.115.115,0,0,1-.16-.012.493.493,0,0,1-.158-.263.1.1,0,0,0,0-.017.415.415,0,0,1,.282.134.114.114,0,0,1,.035.158v0Zm-.217-.756.3-.1h0l-.074.3-.24.033h0Zm-.552.055a.093.093,0,0,1,.064-.026.152.152,0,0,1,.1.043.432.432,0,0,1,.153.256.06.06,0,0,0-.05.014.538.538,0,0,1-.239-.127.117.117,0,0,1-.031-.158Zm-6.412-3.567h.031a.1.1,0,1,1,.054.2.094.094,0,0,1-.054,0,.477.477,0,0,1-.306-.1A.392.392,0,0,1,951.729,49.585ZM951.366,49h0l.153.275-.15.184h0l-.153-.184Zm-.392.786h0a.147.147,0,0,1-.1-.038.091.091,0,0,1-.026-.06.086.086,0,0,1,.026-.06.142.142,0,0,1,.1-.041.426.426,0,0,1,.3.1.446.446,0,0,1-.309.1Zm.328,1.824a2.789,2.789,0,0,0,.309-.743,4.019,4.019,0,0,1-.1,1.781l-.141-.239-.454.779a2.53,2.53,0,0,1,.389-1.578Zm-6.868,1.561a.141.141,0,0,1,.1-.041.1.1,0,0,1,.06.026.09.09,0,0,1,.022.064.142.142,0,0,1-.05.1.48.48,0,0,1-.28.134h-.015A.413.413,0,0,1,944.433,53.168ZM943.74,53h0l.3.1.012.239h0l-.239-.033Zm.137.882a.079.079,0,0,1-.06-.026.074.074,0,0,1-.019-.062.14.14,0,0,1,.05-.1.42.42,0,0,1,.27-.134h.022a.453.453,0,0,1-.16.273.129.129,0,0,1-.1.047Zm-2.128,4.583a.477.477,0,0,1-.258.194.231.231,0,0,1,0-.093.812.812,0,0,1,.239-.239l.019-.014a.091.091,0,0,1,.029.055.152.152,0,0,1-.022.1Zm-1.8,4.32c.017-.055.031-.11.043-.168a.1.1,0,0,1,.074-.043.739.739,0,0,0,.335-.136,1.041,1.041,0,0,1,.335-.2c.217-.079.217-.27.416-.629a2.218,2.218,0,0,0,.112-1.054,1.42,1.42,0,0,1-.38.373,2.149,2.149,0,0,0-.045-.435,1.442,1.442,0,0,1,0-.337c-.5.256-.552.717-.777.975h0a13.373,13.373,0,0,1,.28-1.587h0c.024-.079.194-.167.392-.222a.809.809,0,0,0,.292-.24h0a.17.17,0,0,0,.17.163h.05a.241.241,0,0,0,.074-.039l-.047.287s-.041.119.2.169c-.055.6-.4,4.963,1.064,7.509l-.1.17a3.133,3.133,0,0,1-.428-.564.53.53,0,0,1-.055.335,1.1,1.1,0,0,0-.11.478.968.968,0,0,1-.051-.37,1.635,1.635,0,0,0,.048-.583,5.821,5.821,0,0,0-.1-.662c-.033.3-.256.3-.368.6a1.361,1.361,0,0,1-.239.45.841.841,0,0,0-.133.382c-.127-.361-.239-.717-.351-1.083a1.519,1.519,0,0,0,.067-.435c.127-.114.239-.124.3-.2s.033-.194.088-.3a2.013,2.013,0,0,0,.192-.392c.057-.3.225-.638.081-.956l-.153.055a.54.54,0,0,1,.041-.165,2.988,2.988,0,0,0-.058-1.054,2.478,2.478,0,0,0-.334.3c-.112.136-.3.191-.361.358s-.167.167-.239.335a1.156,1.156,0,0,0-.127.452,7.86,7.86,0,0,1-.173-1.131c-.01-.125-.01-.263-.007-.411ZM952.485,74.29a1.586,1.586,0,0,0-.717.179v-.022a13.2,13.2,0,0,1,.973-1.423,1.225,1.225,0,0,1-.249,1.265Zm-1.49.179a1.585,1.585,0,0,0-.717-.179,1.224,1.224,0,0,1-.239-1.265,13.338,13.338,0,0,1,.973,1.423Zm8.552-3.5a.305.305,0,0,0,.036-.081,1.749,1.749,0,0,0,.112-.526,3.371,3.371,0,0,0-.17-.662c-.079-.2-.27-.662-.478-.751,0,0-.16.526-.215.717a1.624,1.624,0,0,1-.2.529c-.024.036-.069.115-.122.21a1.447,1.447,0,0,1,0-.37c.034-.366-.55-.942-.55-.942a1.978,1.978,0,0,1-.279.942,2.012,2.012,0,0,0-.3.8.958.958,0,0,1-.225.529c-.165.225.022,1.171.043,1.281a12.268,12.268,0,0,1-1.119.634c-.108.052-.239.108-.364.165.024-.024.05-.043.074-.069a1.863,1.863,0,0,0,.55-.853c.175-.031-.239-.074-.466-.053.137-.211.328-.495.459-.739.106-.2-.894.062-.894.062-.108.045-.194.077-.266.1a4.063,4.063,0,0,0,.16-.7c0-.081-.423.055-.758.2a5.009,5.009,0,0,0-.7.5c-.3.191-.334.669-.478.894a1.737,1.737,0,0,0-.175.373.439.439,0,0,0-.2-.373h-.026l-.057-.014c-.062-.014-.167-.031-.33-.05a.718.718,0,0,0-.751.313,8.683,8.683,0,0,0-.366,1.171.306.306,0,0,0-.258,0,8.683,8.683,0,0,0-.366-1.171.718.718,0,0,0-.751-.313c-.163.019-.268.036-.33.05l-.058.014H949.7c-.1.053-.2.189-.206.517a1.373,1.373,0,0,0-.205-.517c-.136-.225-.177-.7-.478-.894a4.537,4.537,0,0,0-.7-.5c-.337-.144-.751-.28-.76-.2a4.358,4.358,0,0,0,.163.7c-.072-.026-.158-.058-.265-.1,0,0-1-.263-.9-.062.134.239.323.528.461.739-.239-.022-.641.022-.478.053a1.913,1.913,0,0,0,.552.853.928.928,0,0,0,.074.069c-.133-.057-.255-.112-.363-.165-.361-.182-.748-.4-1.119-.634.022-.11.208-1.056.041-1.281a.974.974,0,0,1-.222-.529,2.019,2.019,0,0,0-.3-.8,1.956,1.956,0,0,1-.28-.942s-.583.576-.552.942a1.554,1.554,0,0,1,0,.37c-.053-.1-.1-.174-.124-.21a1.634,1.634,0,0,1-.2-.529l-.217-.717c-.2.089-.39.55-.478.751a3.3,3.3,0,0,0-.167.662,1.737,1.737,0,0,0,.112.526.212.212,0,0,0,.033.081,4.409,4.409,0,0,1-1.03-1.114.571.571,0,0,1,.117-.291,2.215,2.215,0,0,0,.416-.638,1.524,1.524,0,0,0,0-.5,4.745,4.745,0,0,1,.079-.495.241.241,0,0,1,0-.031h.478a7.414,7.414,0,0,0,7.313.956.5.5,0,0,1-.055.125s-.754,1.021.956,1.368h0c1.7-.347.956-1.368.956-1.368a.561.561,0,0,1-.057-.127,7.436,7.436,0,0,0,7.318-.956h.478c0,.01,0,.021,0,.031a4.747,4.747,0,0,1,.079.494,1.5,1.5,0,0,0,0,.5,2.105,2.105,0,0,0,.416.638.59.59,0,0,1,.117.292,4.414,4.414,0,0,1-1.148,1.117Z" transform="translate(-807.235 -38.772)" fill="#e0e5f1"/>
    <path id="Trazado_81" data-name="Trazado 81" d="M973.585,92.827a.163.163,0,0,0-.167.158h0a.165.165,0,0,0,.16.169h.007a.17.17,0,0,0,.167-.169A.165.165,0,0,0,973.585,92.827Z" transform="translate(-823.98 -59.676)" fill="#e0e5f1"/>
    <path id="Trazado_82" data-name="Trazado 82" d="M975.37,95.016a.17.17,0,0,0-.167.17.162.162,0,0,0,.158.167h.009a.167.167,0,0,0,.167-.167h0A.175.175,0,0,0,975.37,95.016Z" transform="translate(-824.823 -60.71)" fill="#e0e5f1"/>
    <path id="Trazado_83" data-name="Trazado 83" d="M979.52,88.088a.167.167,0,0,0-.167.167h0a.172.172,0,0,0,.167.167.167.167,0,0,0,.167-.167h0a.162.162,0,0,0-.158-.168Z" transform="translate(-826.783 -57.438)" fill="#e0e5f1"/>
    <path id="Trazado_84" data-name="Trazado 84" d="M981.895,89.5a.186.186,0,0,0,.184.184.181.181,0,0,0,.184-.179v0a.184.184,0,0,0-.184-.182A.191.191,0,0,0,981.895,89.5Z" transform="translate(-827.984 -58.018)" fill="#e0e5f1"/>
    <path id="Trazado_85" data-name="Trazado 85" d="M982.545,81.905a.179.179,0,0,0,.184-.175v-.009a.186.186,0,0,0-.184-.184.191.191,0,0,0-.184.184A.187.187,0,0,0,982.545,81.905Z" transform="translate(-828.204 -54.344)" fill="#e0e5f1"/>
    <path id="Trazado_86" data-name="Trazado 86" d="M983.628,75.244a.182.182,0,0,0-.184.179v.005a.184.184,0,0,0,.368,0v0a.179.179,0,0,0-.175-.184Z" transform="translate(-828.715 -51.371)" fill="#e0e5f1"/>
    <path id="Trazado_87" data-name="Trazado 87" d="M985.545,69.246a.177.177,0,0,0,.182-.172v0a.182.182,0,0,0-.179-.184h0a.186.186,0,0,0-.184.184A.184.184,0,0,0,985.545,69.246Z" transform="translate(-829.621 -48.368)" fill="#e0e5f1"/>
    <path id="Trazado_88" data-name="Trazado 88" d="M983.073,69.876a.179.179,0,0,0,.184-.175v-.007a.185.185,0,1,0-.37.007A.181.181,0,0,0,983.073,69.876Z" transform="translate(-828.452 -48.664)" fill="#e0e5f1"/>
    <path id="Trazado_89" data-name="Trazado 89" d="M980.845,64.391a.179.179,0,0,0-.184-.175h0a.179.179,0,0,0,0,.359.182.182,0,0,0,.184-.179Z" transform="translate(-827.316 -46.162)" fill="#e0e5f1"/>
    <path id="Trazado_90" data-name="Trazado 90" d="M982.5,63.1a.18.18,0,0,0,.184-.175v-.009a.184.184,0,0,0-.368,0v0a.182.182,0,0,0,.179.184Z" transform="translate(-828.183 -45.459)" fill="#e0e5f1"/>
    <path id="Trazado_91" data-name="Trazado 91" d="M986.149,75.489a.18.18,0,0,0,.182.177h0a.177.177,0,0,0,.175-.177.175.175,0,0,0-.167-.182h0a.177.177,0,0,0-.19.162C986.149,75.475,986.149,75.482,986.149,75.489Z" transform="translate(-829.993 -51.4)" fill="#e0e5f1"/>
    <path id="Trazado_92" data-name="Trazado 92" d="M952.834,92.827a.165.165,0,0,0-.167.158.169.169,0,0,0,.167.169.164.164,0,0,0,.167-.163v-.007a.163.163,0,0,0-.167-.158Z" transform="translate(-814.178 -59.676)" fill="#e0e5f1"/>
    <path id="Trazado_93" data-name="Trazado 93" d="M951.228,95.186a.17.17,0,0,0-.167-.17.177.177,0,0,0-.17.17.17.17,0,0,0,.17.167.163.163,0,0,0,.167-.158Z" transform="translate(-813.339 -60.71)" fill="#e0e5f1"/>
    <path id="Trazado_94" data-name="Trazado 94" d="M946.912,88.088a.163.163,0,0,0-.167.158v.01a.167.167,0,0,0,.167.167h0a.172.172,0,0,0,.168-.167.168.168,0,0,0-.168-.168Z" transform="translate(-811.381 -57.438)" fill="#e0e5f1"/>
    <path id="Trazado_95" data-name="Trazado 95" d="M944.324,89.682a.186.186,0,0,0,.184-.184.192.192,0,0,0-.184-.182.185.185,0,0,0-.184.182.179.179,0,0,0,.175.184Z" transform="translate(-810.15 -58.018)" fill="#e0e5f1"/>
    <path id="Trazado_96" data-name="Trazado 96" d="M943.857,81.537a.187.187,0,0,0-.184.184.18.18,0,0,0,.175.184h.009a.184.184,0,0,0,.182-.184A.191.191,0,0,0,943.857,81.537Z" transform="translate(-809.93 -54.344)" fill="#e0e5f1"/>
    <path id="Trazado_97" data-name="Trazado 97" d="M941.871,82.355a.182.182,0,0,0-.179-.184h0a.184.184,0,1,0,0,.368h0a.179.179,0,0,0,.184-.175Z" transform="translate(-808.905 -54.643)" fill="#e0e5f1"/>
    <path id="Trazado_98" data-name="Trazado 98" d="M942.794,75.593a.187.187,0,0,0,.184-.184.184.184,0,0,0-.366-.042.188.188,0,0,0,0,.042A.184.184,0,0,0,942.794,75.593Z" transform="translate(-809.428 -51.352)" fill="#e0e5f1"/>
    <path id="Trazado_99" data-name="Trazado 99" d="M940.858,69.246a.184.184,0,0,0,.184-.175.187.187,0,0,0-.184-.184.182.182,0,0,0-.184.179v0a.179.179,0,0,0,.184.175Z" transform="translate(-808.513 -48.368)" fill="#e0e5f1"/>
    <path id="Trazado_100" data-name="Trazado 100" d="M943.327,69.508a.187.187,0,0,0-.184.184.183.183,0,1,0,.184-.184Z" transform="translate(-809.679 -48.662)" fill="#e0e5f1"/>
    <path id="Trazado_101" data-name="Trazado 101" d="M945.563,64.39a.18.18,0,0,0,.174.184h.01a.179.179,0,0,0,0-.359.177.177,0,0,0-.184.169Z" transform="translate(-810.822 -46.162)" fill="#e0e5f1"/>
    <path id="Trazado_102" data-name="Trazado 102" d="M943.9,63.08a.179.179,0,0,0,.181-.177V62.9a.184.184,0,1,0-.366-.042.19.19,0,0,0,0,.042.18.18,0,0,0,.174.184Z" transform="translate(-809.95 -45.442)" fill="#e0e5f1"/>
    <path id="Trazado_103" data-name="Trazado 103" d="M940.263,75.5a.179.179,0,0,0-.184-.175h0a.175.175,0,0,0-.175.175.177.177,0,0,0,.175.177A.182.182,0,0,0,940.263,75.5Z" transform="translate(-808.149 -51.407)" fill="#e0e5f1"/>
    <path id="Trazado_104" data-name="Trazado 104" d="M959.251,70.554c.079-.016.1,0,.133.079l.048-.014-.048-.112.321-.136-.031-.065-.447.2Z" transform="translate(-817.277 -49.038)" fill="#e0e5f1"/>
    <path id="Trazado_105" data-name="Trazado 105" d="M959.015,69.591h-.064l.058.239.27-.024v-.048a.114.114,0,0,1-.072-.079.1.1,0,0,1,.075-.128h0a.105.105,0,0,1,.134.064l0,.007c.016.058,0,.105-.055.12l.015.064a.141.141,0,0,0,.1-.173l0-.011a.162.162,0,0,0-.183-.139l-.025.005a.155.155,0,0,0-.121.183l0,.008a.145.145,0,0,0,.058.086h-.136Z" transform="translate(-817.146 -48.649)" fill="#e0e5f1"/>
    <path id="Trazado_106" data-name="Trazado 106" d="M959,68.6a.133.133,0,0,0,.129-.1l.031-.1c.024-.081.041-.105.1-.1s.079.089.071.136-.041.134-.127.127v.064a.157.157,0,0,0,.137-.041.215.215,0,0,0,.055-.144c0-.089-.014-.2-.134-.208a.12.12,0,0,0-.136.1l-.048.144a.072.072,0,0,1-.072.058c-.072,0-.081-.081-.072-.129a.106.106,0,0,1,.1-.112h.015v-.062c-.057,0-.16,0-.177.184a.156.156,0,0,0,.126.18Z" transform="translate(-817.103 -48.062)" fill="#e0e5f1"/>
    <path id="Trazado_107" data-name="Trazado 107" d="M959.573,67.346l-.055-.017-.1.287-.16-.055.088-.256-.057-.024-.086.263-.143-.048.1-.28-.065-.024-.112.351.48.153Z" transform="translate(-817.161 -47.568)" fill="#e0e5f1"/>
    <path id="Trazado_108" data-name="Trazado 108" d="M959.82,66.845l-.184-.114.079-.131a.143.143,0,0,0-.027-.2l-.018-.012a.129.129,0,0,0-.1-.016.155.155,0,0,0-.1.074l-.11.189.42.265Zm-.375-.239.076-.115a.074.074,0,0,1,.074-.045l.034.016a.079.079,0,0,1,.03.108.073.073,0,0,1-.011.014l-.064.1Z" transform="translate(-817.339 -47.177)" fill="#e0e5f1"/>
    <path id="Trazado_109" data-name="Trazado 109" d="M960.035,65.745l.32.3.038-.048-.311-.3.12-.127-.048-.041-.28.3.041.038Z" transform="translate(-817.583 -46.783)" fill="#e0e5f1"/>
    <path id="Trazado_110" data-name="Trazado 110" d="M960.97,65.716l-.3-.4-.048.041.3.4Z" transform="translate(-817.934 -46.682)" fill="#e0e5f1"/>
    <path id="Trazado_111" data-name="Trazado 111" d="M961.554,65.227l-.024-.048-.27.136-.072-.143.239-.129-.024-.055-.249.127-.072-.136.263-.134-.024-.057-.328.167.232.447Z" transform="translate(-818.111 -46.432)" fill="#e0e5f1"/>
    <path id="Trazado_112" data-name="Trazado 112" d="M962.127,65.046l-.065-.3a.5.5,0,0,1-.031-.12l.24.383.062-.014.048-.44a.471.471,0,0,1,.024.12l.065.287h.064l-.1-.495-.1.024-.047.447-.239-.383-.1.015.112.478Z" transform="translate(-818.563 -46.282)" fill="#e0e5f1"/>
    <path id="Trazado_113" data-name="Trazado 113" d="M963.4,64.954c.112,0,.179-.053.179-.134a.122.122,0,0,0-.086-.127.108.108,0,0,0,.067-.1.129.129,0,0,0-.132-.138h-.217l-.024.5Zm-.115-.437h.11c.072,0,.1.019.1.069s-.041.07-.106.062h-.114Zm.11.217c.048,0,.1.017.1.081s-.041.081-.1.081l-.127-.012v-.163Z" transform="translate(-819.149 -46.273)" fill="#e0e5f1"/>
    <path id="Trazado_114" data-name="Trazado 114" d="M963.232,64.443h0Z" transform="translate(-819.168 -46.269)" fill="#e0e5f1"/>
    <path id="Trazado_115" data-name="Trazado 115" d="M964.154,64.832l.16.048c.081.021.072.069.064.107a.265.265,0,0,0-.024.122l.081.021h0c-.017-.016-.014-.026,0-.057v-.087c.024-.064,0-.088-.022-.1.031-.017.081-.026.1-.1a.158.158,0,0,0-.122-.172l-.225-.077-.132.49.062.017Zm.081-.213.144.052c.031,0,.081.02.057.091s-.062.06-.11.052l-.138-.041Z" transform="translate(-819.547 -46.314)" fill="#e0e5f1"/>
    <path id="Trazado_116" data-name="Trazado 116" d="M965.207,65.524l.024-.048-.256-.151.079-.143.242.134.031-.048-.239-.143.079-.127.256.151.031-.055-.318-.184-.249.43Z" transform="translate(-819.95 -46.489)" fill="#e0e5f1"/>
    <path id="Trazado_117" data-name="Trazado 117" d="M965.975,66.271a.239.239,0,0,0,.332,0,.213.213,0,0,0,.073-.292.315.315,0,0,0-.021-.028l-.125-.158-.38.318Zm.321-.278c.057.065.047.134-.039.213s-.17.072-.225,0l-.076-.086.265-.224Z" transform="translate(-820.408 -46.907)" fill="#e0e5f1"/>
    <path id="Trazado_118" data-name="Trazado 118" d="M966.569,67.215l.055-.024-.136-.273.153-.072.12.249.055-.033-.127-.239.143-.072.127.263.057-.024-.17-.328-.447.225Z" transform="translate(-820.664 -47.318)" fill="#e0e5f1"/>
    <path id="Trazado_119" data-name="Trazado 119" d="M967.213,68.207l-.342.048v.062l.478-.072V68.2c-.079,0-.086-.031-.11-.112h-.048Z" transform="translate(-820.887 -47.99)" fill="#e0e5f1"/>
    <path id="Trazado_120" data-name="Trazado 120" d="M967.26,68.839a.1.1,0,0,0-.1.069.137.137,0,0,0-.12-.1.151.151,0,0,0-.117.048.2.2,0,0,0-.038.119.144.144,0,0,0,.118.166.138.138,0,0,0,.026,0,.116.116,0,0,0,.127-.069.1.1,0,0,0,.1.064.127.127,0,0,0,.131-.146.134.134,0,0,0-.111-.154Zm-.239.239c-.072,0-.081-.058-.081-.1a.081.081,0,0,1,.075-.087h.018a.081.081,0,0,1,.076.087v.011a.079.079,0,0,1-.074.084h0Zm.239,0a.092.092,0,0,1-.074-.091.072.072,0,0,1,.074-.069h0a.062.062,0,0,1,.064.079c0,.062-.041.079-.064.079Z" transform="translate(-820.894 -48.332)" fill="#e0e5f1"/>
    <path id="Trazado_121" data-name="Trazado 121" d="M967.146,69.567v.064a.092.092,0,0,1,.086.12c-.024.088-.072.088-.1.072a.2.2,0,0,1-.1-.11l-.016-.074a.225.225,0,0,0-.167-.158l-.079.327.055.015.065-.263c.024,0,.055.031.072.1l.014.058c.024.088.048.15.129.167a.148.148,0,0,0,.182-.1l0-.008a.164.164,0,0,0-.115-.2Z" transform="translate(-820.84 -48.649)" fill="#e0e5f1"/>
    <path id="Trazado_122" data-name="Trazado 122" d="M966.93,70.48l-.048.1-.311-.151-.031.062.447.208.014-.048c-.062-.048-.055-.079-.024-.16Z" transform="translate(-820.731 -49.098)" fill="#e0e5f1"/>
    <path id="Trazado_123" data-name="Trazado 123" d="M962.209,72.52l.055.012.366-1.515h-.055l-.361,1.494Z" transform="translate(-818.685 -49.374)" fill="#e0e5f1"/>
    <path id="Trazado_124" data-name="Trazado 124" d="M962.109,71.836l.053.016.306-.9-.053-.016-.3.882Z" transform="translate(-818.638 -49.338)" fill="#e0e5f1"/>
    <path id="Trazado_125" data-name="Trazado 125" d="M961.139,72.35l.048.022.717-1.492a.252.252,0,0,1-.05-.022l-.715,1.477Z" transform="translate(-818.18 -49.299)" fill="#e0e5f1"/>
    <path id="Trazado_126" data-name="Trazado 126" d="M960.865,72.06l.77-1.267-.05-.017-.767,1.267Z" transform="translate(-818.028 -49.261)" fill="#e0e5f1"/>
    <path id="Trazado_127" data-name="Trazado 127" d="M960.007,72.009v.012l.043.033,1.095-1.4-.043-.036Z" transform="translate(-817.645 -49.188)" fill="#e0e5f1"/>
    <path id="Trazado_128" data-name="Trazado 128" d="M960.1,71.594l.956-1.076h0c-.011-.012-.028-.022-.041-.036l-.968,1.078Z" transform="translate(-817.664 -49.122)" fill="#e0e5f1"/>
    <path id="Trazado_129" data-name="Trazado 129" d="M960.5,70.373s-.022-.028-.033-.041l-1.435,1.263.036.041,1.435-1.257Z" transform="translate(-817.187 -49.051)" fill="#e0e5f1"/>
    <path id="Trazado_130" data-name="Trazado 130" d="M960.95,70.19h0c0-.014-.024-.026-.034-.043l-.758.536h-.012l.034.045Z" transform="translate(-817.711 -48.964)" fill="#e0e5f1"/>
    <path id="Trazado_131" data-name="Trazado 131" d="M961.047,70c0-.014-.017-.031-.026-.048l-.528.3.026.048Z" transform="translate(-817.874 -48.873)" fill="#e0e5f1"/>
    <path id="Trazado_132" data-name="Trazado 132" d="M960.342,70.021l.022.05.559-.239-.024-.048Z" transform="translate(-817.803 -48.792)" fill="#e0e5f1"/>
    <path id="Trazado_133" data-name="Trazado 133" d="M960.224,69.749l.017.053.567-.184.014,0-.019-.05Z" transform="translate(-817.748 -48.687)" fill="#e0e5f1"/>
    <path id="Trazado_134" data-name="Trazado 134" d="M960.747,69.4l-.014-.053-.6.131.012.053Z" transform="translate(-817.707 -48.587)" fill="#e0e5f1"/>
    <path id="Trazado_135" data-name="Trazado 135" d="M960.079,69.2v.055l.615-.064v-.055Z" transform="translate(-817.679 -48.484)" fill="#e0e5f1"/>
    <path id="Trazado_136" data-name="Trazado 136" d="M960.061,68.969h.619a.074.074,0,0,1,0-.026v-.029h-.619Z" transform="translate(-817.67 -48.381)" fill="#e0e5f1"/>
    <path id="Trazado_137" data-name="Trazado 137" d="M960.084,68.65l.6.051h.012a.336.336,0,0,1,0-.055l-.6-.052h0Z" transform="translate(-817.681 -48.229)" fill="#e0e5f1"/>
    <path id="Trazado_138" data-name="Trazado 138" d="M960.115,68.285l.607.132v-.053l-.607-.134Z" transform="translate(-817.696 -48.058)" fill="#e0e5f1"/>
    <path id="Trazado_139" data-name="Trazado 139" d="M960.233,67.977l.574.189h0l.014-.052-.581-.192Z" transform="translate(-817.752 -47.913)" fill="#e0e5f1"/>
    <path id="Trazado_140" data-name="Trazado 140" d="M960.328,67.6l-.022.05.569.239a.491.491,0,0,1,.024-.05l-.559-.239Z" transform="translate(-817.786 -47.763)" fill="#e0e5f1"/>
    <path id="Trazado_141" data-name="Trazado 141" d="M960.451,67.356l.542.294h0a.328.328,0,0,1,.026-.047l-.547-.3Z" transform="translate(-817.855 -47.622)" fill="#e0e5f1"/>
    <path id="Trazado_142" data-name="Trazado 142" d="M960.65,67.077l.5.354a.347.347,0,0,1,.036-.043l-.5-.354Z" transform="translate(-817.949 -47.493)" fill="#e0e5f1"/>
    <path id="Trazado_143" data-name="Trazado 143" d="M960.908,66.767l-.036.043.454.39h0l.036-.043-.447-.385Z" transform="translate(-818.054 -47.367)" fill="#e0e5f1"/>
    <path id="Trazado_144" data-name="Trazado 144" d="M961.148,66.536l-.041.038.414.433.043-.033-.409-.428Z" transform="translate(-818.165 -47.258)" fill="#e0e5f1"/>
    <path id="Trazado_145" data-name="Trazado 145" d="M961.407,66.323l-.041.036.375.478.041-.034-.366-.459Z" transform="translate(-818.287 -47.157)" fill="#e0e5f1"/>
    <path id="Trazado_146" data-name="Trazado 146" d="M961.731,66.137l-.048.026.3.509h0l.048-.026-.294-.5Z" transform="translate(-818.437 -47.069)" fill="#e0e5f1"/>
    <path id="Trazado_147" data-name="Trazado 147" d="M962,66.006l-.051.024.239.533.051-.024L962,66.018Z" transform="translate(-818.563 -47.008)" fill="#e0e5f1"/>
    <path id="Trazado_148" data-name="Trazado 148" d="M962.349,65.888l-.05.017.194.557.053-.017-.192-.545Z" transform="translate(-818.728 -46.952)" fill="#e0e5f1"/>
    <path id="Trazado_149" data-name="Trazado 149" d="M962.69,65.793h-.055l.122.583h.052l-.117-.583Z" transform="translate(-818.886 -46.907)" fill="#e0e5f1"/>
    <path id="Trazado_150" data-name="Trazado 150" d="M963.048,66.347h.055l-.06-.6h-.055Z" transform="translate(-819.053 -46.888)" fill="#e0e5f1"/>
    <path id="Trazado_151" data-name="Trazado 151" d="M963.356,65.734H963.3v.6h.045v-.586Z" transform="translate(-819.201 -46.879)" fill="#e0e5f1"/>
    <path id="Trazado_152" data-name="Trazado 152" d="M963.514,66.323h.055l.057-.6h-.055Z" transform="translate(-819.301 -46.872)" fill="#e0e5f1"/>
    <path id="Trazado_153" data-name="Trazado 153" d="M963.789,66.392h.022l.119-.6h-.055l-.117.59Z" transform="translate(-819.417 -46.909)" fill="#e0e5f1"/>
    <path id="Trazado_154" data-name="Trazado 154" d="M964.178,65.9l-.052-.017-.187.552h0l.053.017Z" transform="translate(-819.502 -46.952)" fill="#e0e5f1"/>
    <path id="Trazado_155" data-name="Trazado 155" d="M964.446,66.023,964.4,66l-.239.536h0l.047.026.24-.533Z" transform="translate(-819.605 -47.005)" fill="#e0e5f1"/>
    <path id="Trazado_156" data-name="Trazado 156" d="M964.63,66.132l-.284.509-.007.012.048.026.292-.521Z" transform="translate(-819.691 -47.067)" fill="#e0e5f1"/>
    <path id="Trazado_157" data-name="Trazado 157" d="M964.515,66.792h0a.3.3,0,0,1,.043.033l.361-.478h0l-.043-.033Z" transform="translate(-819.774 -47.153)" fill="#e0e5f1"/>
    <path id="Trazado_158" data-name="Trazado 158" d="M964.687,66.971l.041.038.4-.433.01-.01-.041-.036Z" transform="translate(-819.856 -47.256)" fill="#e0e5f1"/>
    <rect id="Rectángulo_4" data-name="Rectángulo 4" width="0.598" height="0.055" transform="translate(144.921 19.805) rotate(-41.86)" fill="#e0e5f1"/>
    <path id="Trazado_159" data-name="Trazado 159" d="M965.013,67.379h0l.036.041.478-.347h0l-.031-.043Z" transform="translate(-820.01 -47.491)" fill="#e0e5f1"/>
    <path id="Trazado_160" data-name="Trazado 160" d="M965.126,67.6h0c0,.014.017.031.026.048l.5-.284h.012l-.026-.048Z" transform="translate(-820.063 -47.626)" fill="#e0e5f1"/>
    <path id="Trazado_161" data-name="Trazado 161" d="M965.217,67.844h0a.164.164,0,0,1,.024.048l.54-.239h0l-.021-.048Z" transform="translate(-820.106 -47.763)" fill="#e0e5f1"/>
    <path id="Trazado_162" data-name="Trazado 162" d="M965.3,68.113a.071.071,0,0,0,.016.053l.55-.189h.015l-.02-.05Z" transform="translate(-820.145 -47.915)" fill="#e0e5f1"/>
    <path id="Trazado_163" data-name="Trazado 163" d="M965.358,68.348a.094.094,0,0,0,.012.055l.586-.134v-.052Z" transform="translate(-820.173 -48.052)" fill="#e0e5f1"/>
    <path id="Trazado_164" data-name="Trazado 164" d="M965.389,68.638v.053l.576-.05h.014v-.053Z" transform="translate(-820.187 -48.227)" fill="#e0e5f1"/>
    <path id="Trazado_165" data-name="Trazado 165" d="M965.419,68.93v.017h.593v-.055h-.6A.37.37,0,0,1,965.419,68.93Z" transform="translate(-820.2 -48.371)" fill="#e0e5f1"/>
    <path id="Trazado_166" data-name="Trazado 166" d="M965.37,69.331a.356.356,0,0,1-.012.053l.571.131.015-.055Z" transform="translate(-820.173 -48.578)" fill="#e0e5f1"/>
    <path id="Trazado_167" data-name="Trazado 167" d="M965.979,69.233v-.055l-.59-.064h0v.043l.576.062Z" transform="translate(-820.187 -48.476)" fill="#e0e5f1"/>
    <path id="Trazado_168" data-name="Trazado 168" d="M965.866,69.783l.017-.05-.548-.184h0l-.014.047.545.182Z" transform="translate(-820.155 -48.681)" fill="#e0e5f1"/>
    <path id="Trazado_169" data-name="Trazado 169" d="M965.237,69.757c0,.017-.017.031-.024.048l.523.239h.012L965.77,70l-.533-.239Z" transform="translate(-820.104 -48.779)" fill="#e0e5f1"/>
    <path id="Trazado_170" data-name="Trazado 170" d="M965.113,69.982l.5.287h0l.026-.045-.509-.294Z" transform="translate(-820.057 -48.861)" fill="#e0e5f1"/>
    <path id="Trazado_171" data-name="Trazado 171" d="M964.995,70.169l.739.538.031-.046-.737-.538Z" transform="translate(-820.001 -48.953)" fill="#e0e5f1"/>
    <path id="Trazado_172" data-name="Trazado 172" d="M964.879,70.323c-.012.015-.022.029-.033.041l1.367,1.248h0l.036-.041-1.362-1.248Z" transform="translate(-819.931 -49.047)" fill="#e0e5f1"/>
    <path id="Trazado_173" data-name="Trazado 173" d="M964.687,70.5l.932,1.073.043-.036-.935-1.071h0a.166.166,0,0,1-.031.026Z" transform="translate(-819.856 -49.115)" fill="#e0e5f1"/>
    <path id="Trazado_174" data-name="Trazado 174" d="M964.528,70.633l1.054,1.391.043-.033L964.571,70.6Z" transform="translate(-819.78 -49.177)" fill="#e0e5f1"/>
    <path id="Trazado_175" data-name="Trazado 175" d="M964.311,70.742l.731,1.251h0l.048-.028-.739-1.26Z" transform="translate(-819.678 -49.227)" fill="#e0e5f1"/>
    <path id="Trazado_176" data-name="Trazado 176" d="M964.143,70.861l.674,1.468v.012l.05-.024-.681-1.482Z" transform="translate(-819.599 -49.289)" fill="#e0e5f1"/>
    <path id="Trazado_177" data-name="Trazado 177" d="M963.917,70.938l.289.875v.015l.053-.017-.294-.89Z" transform="translate(-819.492 -49.329)" fill="#e0e5f1"/>
    <path id="Trazado_178" data-name="Trazado 178" d="M963.708,71l.351,1.5.053-.014-.351-1.5Z" transform="translate(-819.393 -49.361)" fill="#e0e5f1"/>
    <path id="Trazado_179" data-name="Trazado 179" d="M953.629,89.878s-.17.2-.076.364a.282.282,0,0,0,.4.027.268.268,0,0,0,.027-.027S953.567,90.246,953.629,89.878Z" transform="translate(-814.583 -58.284)" fill="#e0e5f1"/>
    <path id="Trazado_180" data-name="Trazado 180" d="M972.335,90.242a.279.279,0,0,0,.425,0c.1-.167-.076-.364-.076-.364C972.746,90.246,972.335,90.242,972.335,90.242Z" transform="translate(-823.468 -58.284)" fill="#e0e5f1"/>
    <path id="Trazado_181" data-name="Trazado 181" d="M956.369,89.437l-.089-.053-.219.37.088.051a.215.215,0,0,0,.22-.368Z" transform="translate(-815.781 -58.05)" fill="#e0e5f1"/>
    <path id="Trazado_182" data-name="Trazado 182" d="M957.729,90.177a.211.211,0,0,0-.28.1l0,.006a.212.212,0,0,0,.086.288l.006,0a.215.215,0,0,0,.285-.108l0,0a.213.213,0,0,0-.095-.285Z" transform="translate(-816.424 -58.416)" fill="#e0e5f1"/>
    <path id="Trazado_183" data-name="Trazado 183" d="M962.537,91.414a.222.222,0,1,0,.19.212A.222.222,0,0,0,962.537,91.414Z" transform="translate(-818.739 -59.009)" fill="#e0e5f1"/>
    <path id="Trazado_184" data-name="Trazado 184" d="M966.467,91.468l-.122.031.048.189.124-.034a.089.089,0,0,0,.074-.1c0-.005,0-.011,0-.016a.091.091,0,0,0-.106-.073Z" transform="translate(-820.639 -59.032)" fill="#e0e5f1"/>
    <path id="Trazado_185" data-name="Trazado 185" d="M966.44,91.108a.081.081,0,0,0-.1-.062l-.008,0-.112.031.043.163.115-.028a.081.081,0,0,0,.062-.1Z" transform="translate(-820.581 -58.834)" fill="#e0e5f1"/>
    <path id="Trazado_186" data-name="Trazado 186" d="M967.975,90.5a.144.144,0,0,0-.077.017l-.086.036.077.189.106-.043a.1.1,0,0,0,.06-.121l-.005-.013A.092.092,0,0,0,967.975,90.5Z" transform="translate(-821.332 -58.578)" fill="#e0e5f1"/>
    <path id="Trazado_187" data-name="Trazado 187" d="M969.506,89.921l.031.189.151-.084-.141-.129a.818.818,0,0,1-.057-.06h0S969.5,89.89,969.506,89.921Z" transform="translate(-822.124 -58.264)" fill="#e0e5f1"/>
    <path id="Trazado_188" data-name="Trazado 188" d="M963.682,89.469,963.5,89.4a.674.674,0,0,1,.392-.036l-.219-.2a1.435,1.435,0,0,0-1.636-.208,6.122,6.122,0,0,1-6.454,0,1.448,1.448,0,0,0-1.638.208l-.22.2a.682.682,0,0,1,.395.036l-.179.067c.239.091.134.261.134.261l.28-.239a10.381,10.381,0,0,1,1.229.614,6.327,6.327,0,0,0,3.227.817h0a6.325,6.325,0,0,0,3.23-.817,10.146,10.146,0,0,1,1.229-.614l.277.239S963.452,89.567,963.682,89.469Zm-8.673.122-.163-.1.291-.478.162.1a.284.284,0,1,1-.206.53.269.269,0,0,1-.086-.052Zm.4.239-.069-.039.268-.5.072.038Zm.345.182a.291.291,0,0,1-.139-.388l0-.006a.292.292,0,1,1,.137.394Zm.794-.169a.2.2,0,0,0-.1-.091.093.093,0,0,0-.126.04h0c-.043.108.225.179.16.351a.165.165,0,0,1-.213.1.135.135,0,0,1-.026-.013.26.26,0,0,1-.148-.139l.062-.038a.226.226,0,0,0,.115.108.089.089,0,0,0,.12-.036l0,0c.043-.115-.222-.192-.16-.354a.17.17,0,0,1,.223-.089l.016.008a.236.236,0,0,1,.129.112Zm.478.636a.208.208,0,0,1-.167-.242.161.161,0,0,1,0-.022l.1-.354.077.019-.1.356a.146.146,0,0,0,.28.074l.1-.354.076.019-.1.356a.206.206,0,0,1-.256.138l-.012,0Zm.811.163-.079-.014-.184-.412c-.015-.033-.031-.088-.031-.088h0v.083l-.067.366-.077-.015.1-.561.079.012.184.412c.014.033.031.091.031.091h0a.713.713,0,0,1,0-.084l.065-.364.079.015Zm.213.022h-.079l.067-.565h.079Zm.4.043a.292.292,0,0,1-.278-.3v-.008a.292.292,0,1,1,.583.028h0a.294.294,0,0,1-.3.273Zm.779-.012-.27-.359c-.018-.026-.035-.053-.05-.081h0a.543.543,0,0,1,0,.083l.014.368h-.079l-.024-.567h.079l.268.359a.691.691,0,0,1,.052.079h0v-.082l-.014-.368h.081l.022.569Zm.529-.053-.089-.562.079-.014.076.495.253-.041v.069Zm.4-.07-.117-.559.079-.016.115.559Zm.409-.1-.2.05-.146-.55.194-.05a.148.148,0,0,1,.192.085l0,.013a.133.133,0,0,1-.038.136h0a.138.138,0,0,1,.127.108.167.167,0,0,1-.132.2h0Zm.287-.081-.179-.54.313-.105.022.067-.239.079.057.17.194-.064.021.064-.194.064.057.175.254-.084.021.067Zm.717-.261-.2-.165-.112.043.083.211-.074.031-.213-.528.163-.065a.352.352,0,0,1,.1-.028.156.156,0,0,1,.146.108.158.158,0,0,1-.036.182h0l.024.019.2.16Zm.28-.127-.215-.452-.177.081-.029-.062.425-.2.031.062-.177.084.213.454Zm.571-.3-.129-.117-.189.1.029.172-.072.039-.094-.6.074-.041.454.4Zm.289-.172-.16.1-.3-.478.16-.1a.284.284,0,0,1,.357.443.28.28,0,0,1-.056.035Z" transform="translate(-814.679 -57.771)" fill="#e0e5f1"/>
    <path id="Trazado_189" data-name="Trazado 189" d="M970.167,89.347l-.088.053.227.366.089-.053a.2.2,0,0,0,.088-.263.206.206,0,0,0-.022-.033.194.194,0,0,0-.258-.092A.225.225,0,0,0,970.167,89.347Z" transform="translate(-822.403 -58.014)" fill="#e0e5f1"/>
  </g>
</svg>
